# Blender v2.78 (sub 0) OBJ File: 'cubeHinge.blend'
# www.blender.org
mtllib cubeHinge.mtl
o Cylinder
v 0.000000 1.000000 -0.125000
v 0.024386 1.000000 -0.122598
v 0.047835 1.000000 -0.115485
v 0.069446 1.000000 -0.103934
v 0.088388 1.000000 -0.088388
v 0.103934 1.000000 -0.069446
v 0.115485 1.000000 -0.047835
v 0.122598 1.000000 -0.024386
v 0.125000 1.000000 -0.000000
v 0.122598 1.000000 0.024386
v 0.115485 1.000000 0.047835
v 0.103934 1.000000 0.069446
v 0.088388 1.000000 0.088388
v 0.069446 1.000000 0.103934
v 0.047835 1.000000 0.115485
v 0.024386 1.000000 0.122598
v -0.000000 1.000000 0.125000
v -0.024386 1.000000 0.122598
v -0.047835 1.000000 0.115485
v -0.069446 1.000000 0.103934
v -0.088388 1.000000 0.088388
v -0.103934 1.000000 0.069446
v -0.115485 1.000000 0.047835
v -0.122598 1.000000 0.024386
v -0.125000 1.000000 -0.000000
v -0.122598 1.000000 -0.024386
v -0.115485 1.000000 -0.047836
v -0.103934 1.000000 -0.069446
v -0.088388 1.000000 -0.088388
v -0.069446 1.000000 -0.103934
v -0.047835 1.000000 -0.115485
v -0.024386 1.000000 -0.122598
v -0.000000 1.000000 -0.000000
v 0.024386 1.000000 -0.000000
v 0.047835 1.000000 -0.000000
v 0.069446 1.000000 -0.000000
v 0.088388 1.000000 -0.000000
v 0.103934 1.000000 -0.000000
v 0.115485 1.000000 -0.000000
v 0.122598 1.000000 -0.000000
v -0.024386 1.000000 -0.000000
v -0.047835 1.000000 -0.000000
v -0.069446 1.000000 -0.000000
v -0.088388 1.000000 -0.000000
v -0.103934 1.000000 -0.000000
v -0.115485 1.000000 -0.000000
v -0.122598 1.000000 -0.000000
v 0.000000 -1.000000 -0.125000
v 0.024386 -1.000000 -0.122598
v 0.047835 -1.000000 -0.115485
v 0.069446 -1.000000 -0.103934
v 0.088388 -1.000000 -0.088388
v 0.103934 -1.000000 -0.069446
v 0.115485 -1.000000 -0.047835
v 0.122598 -1.000000 -0.024386
v 0.125000 -1.000000 -0.000000
v 0.122598 -1.000000 0.024386
v 0.115485 -1.000000 0.047835
v 0.103934 -1.000000 0.069446
v 0.088388 -1.000000 0.088388
v 0.069446 -1.000000 0.103934
v 0.047835 -1.000000 0.115485
v 0.024386 -1.000000 0.122598
v -0.000000 -1.000000 0.125000
v -0.024386 -1.000000 0.122598
v -0.047835 -1.000000 0.115485
v -0.069446 -1.000000 0.103934
v -0.088388 -1.000000 0.088388
v -0.103934 -1.000000 0.069446
v -0.115485 -1.000000 0.047835
v -0.122598 -1.000000 0.024386
v -0.125000 -1.000000 -0.000000
v -0.122598 -1.000000 -0.024386
v -0.115485 -1.000000 -0.047836
v -0.103934 -1.000000 -0.069446
v -0.088388 -1.000000 -0.088388
v -0.069446 -1.000000 -0.103934
v -0.047835 -1.000000 -0.115485
v -0.024386 -1.000000 -0.122598
v -0.000000 -1.000000 -0.000000
v 0.024386 -1.000000 -0.000000
v 0.047835 -1.000000 -0.000000
v 0.069446 -1.000000 -0.000000
v 0.088388 -1.000000 -0.000000
v 0.103934 -1.000000 -0.000000
v 0.115485 -1.000000 -0.000000
v 0.122598 -1.000000 -0.000000
v -0.024386 -1.000000 -0.000000
v -0.047835 -1.000000 -0.000000
v -0.069446 -1.000000 -0.000000
v -0.088388 -1.000000 -0.000000
v -0.103934 -1.000000 -0.000000
v -0.115485 -1.000000 -0.000000
v -0.122598 -1.000000 -0.000000
v 0.000000 0.000000 -0.125000
v 0.024386 0.000000 -0.122598
v 0.047835 0.000000 -0.115485
v 0.069446 0.000000 -0.103934
v 0.088388 0.000000 -0.088388
v 0.103934 0.000000 -0.069446
v 0.115485 0.000000 -0.047835
v 0.122598 0.000000 -0.024386
v 0.125000 0.000000 -0.000000
v 0.122598 0.000000 0.024386
v 0.115485 0.000000 0.047835
v 0.103934 0.000000 0.069446
v 0.088388 0.000000 0.088388
v 0.069446 0.000000 0.103934
v 0.047835 0.000000 0.115485
v 0.024386 0.000000 0.122598
v -0.000000 0.000000 0.125000
v -0.024386 0.000000 0.122598
v -0.047835 0.000000 0.115485
v -0.069446 0.000000 0.103934
v -0.088388 0.000000 0.088388
v -0.103934 0.000000 0.069446
v -0.115485 0.000000 0.047835
v -0.122598 0.000000 0.024386
v -0.125000 0.000000 -0.000000
v -0.122598 0.000000 -0.024386
v -0.115485 0.000000 -0.047836
v -0.103934 0.000000 -0.069446
v -0.088388 0.000000 -0.088388
v -0.069446 0.000000 -0.103934
v -0.047835 0.000000 -0.115485
v -0.024386 0.000000 -0.122598
vn 0.0980 0.0000 -0.9952
vn 0.2903 0.0000 -0.9569
vn 0.4714 0.0000 -0.8819
vn 0.6344 0.0000 -0.7730
vn 0.7730 0.0000 -0.6344
vn 0.8819 0.0000 -0.4714
vn 0.9569 0.0000 -0.2903
vn 0.9952 0.0000 -0.0980
vn 0.9952 0.0000 0.0980
vn 0.9569 0.0000 0.2903
vn 0.8819 0.0000 0.4714
vn 0.7730 0.0000 0.6344
vn 0.6344 0.0000 0.7730
vn 0.4714 0.0000 0.8819
vn 0.2903 0.0000 0.9569
vn 0.0980 0.0000 0.9952
vn -0.0980 0.0000 0.9952
vn -0.2903 0.0000 0.9569
vn -0.4714 0.0000 0.8819
vn -0.6344 0.0000 0.7730
vn -0.7730 0.0000 0.6344
vn -0.8819 0.0000 0.4714
vn -0.9569 0.0000 0.2903
vn -0.9952 0.0000 0.0980
vn -0.9952 0.0000 -0.0980
vn -0.9569 0.0000 -0.2903
vn -0.8819 0.0000 -0.4714
vn -0.7730 0.0000 -0.6344
vn -0.6344 0.0000 -0.7730
vn -0.4714 0.0000 -0.8819
vn 0.0000 1.0000 0.0000
vn -0.2903 0.0000 -0.9569
vn -0.0980 0.0000 -0.9952
vn 0.0000 -1.0000 0.0000
usemtl None
s off
f 95//1 1//1 2//1 96//1
f 96//2 2//2 3//2 97//2
f 97//3 3//3 4//3 98//3
f 98//4 4//4 5//4 99//4
f 99//5 5//5 6//5 100//5
f 100//6 6//6 7//6 101//6
f 101//7 7//7 8//7 102//7
f 102//8 8//8 9//8 103//8
f 103//9 9//9 10//9 104//9
f 104//10 10//10 11//10 105//10
f 105//11 11//11 12//11 106//11
f 106//12 12//12 13//12 107//12
f 107//13 13//13 14//13 108//13
f 108//14 14//14 15//14 109//14
f 109//15 15//15 16//15 110//15
f 110//16 16//16 17//16 111//16
f 111//17 17//17 18//17 112//17
f 112//18 18//18 19//18 113//18
f 113//19 19//19 20//19 114//19
f 114//20 20//20 21//20 115//20
f 115//21 21//21 22//21 116//21
f 116//22 22//22 23//22 117//22
f 117//23 23//23 24//23 118//23
f 118//24 24//24 25//24 119//24
f 119//25 25//25 26//25 120//25
f 120//26 26//26 27//26 121//26
f 121//27 27//27 28//27 122//27
f 122//28 28//28 29//28 123//28
f 123//29 29//29 30//29 124//29
f 124//30 30//30 31//30 125//30
f 2//31 34//31 35//31 3//31
f 125//32 31//32 32//32 126//32
f 126//33 32//33 1//33 95//33
f 17//31 33//31 41//31 18//31
f 9//31 40//31 10//31
f 25//31 47//31 26//31
f 34//31 2//31 1//31 33//31
f 16//31 34//31 33//31 17//31
f 3//31 35//31 36//31 4//31
f 15//31 35//31 34//31 16//31
f 4//31 36//31 37//31 5//31
f 14//31 36//31 35//31 15//31
f 5//31 37//31 38//31 6//31
f 13//31 37//31 36//31 14//31
f 6//31 38//31 39//31 7//31
f 12//31 38//31 37//31 13//31
f 7//31 39//31 40//31 8//31
f 11//31 39//31 38//31 12//31
f 8//31 40//31 9//31
f 10//31 40//31 39//31 11//31
f 32//31 41//31 33//31 1//31
f 18//31 41//31 42//31 19//31
f 31//31 42//31 41//31 32//31
f 19//31 42//31 43//31 20//31
f 30//31 43//31 42//31 31//31
f 20//31 43//31 44//31 21//31
f 21//31 44//31 45//31 22//31
f 29//31 44//31 43//31 30//31
f 28//31 45//31 44//31 29//31
f 22//31 45//31 46//31 23//31
f 27//31 46//31 45//31 28//31
f 23//31 46//31 47//31 24//31
f 26//31 47//31 46//31 27//31
f 24//31 47//31 25//31
f 95//1 96//1 49//1 48//1
f 96//2 97//2 50//2 49//2
f 97//3 98//3 51//3 50//3
f 98//4 99//4 52//4 51//4
f 99//5 100//5 53//5 52//5
f 100//6 101//6 54//6 53//6
f 101//7 102//7 55//7 54//7
f 102//8 103//8 56//8 55//8
f 103//9 104//9 57//9 56//9
f 104//10 105//10 58//10 57//10
f 105//11 106//11 59//11 58//11
f 106//12 107//12 60//12 59//12
f 107//13 108//13 61//13 60//13
f 108//14 109//14 62//14 61//14
f 109//15 110//15 63//15 62//15
f 110//16 111//16 64//16 63//16
f 111//17 112//17 65//17 64//17
f 112//18 113//18 66//18 65//18
f 113//19 114//19 67//19 66//19
f 114//20 115//20 68//20 67//20
f 115//21 116//21 69//21 68//21
f 116//22 117//22 70//22 69//22
f 117//23 118//23 71//23 70//23
f 118//24 119//24 72//24 71//24
f 119//25 120//25 73//25 72//25
f 120//26 121//26 74//26 73//26
f 121//27 122//27 75//27 74//27
f 122//28 123//28 76//28 75//28
f 123//29 124//29 77//29 76//29
f 124//30 125//30 78//30 77//30
f 49//34 50//34 82//34 81//34
f 125//32 126//32 79//32 78//32
f 126//33 95//33 48//33 79//33
f 64//34 65//34 88//34 80//34
f 56//34 57//34 87//34
f 72//34 73//34 94//34
f 81//34 80//34 48//34 49//34
f 63//34 64//34 80//34 81//34
f 50//34 51//34 83//34 82//34
f 62//34 63//34 81//34 82//34
f 51//34 52//34 84//34 83//34
f 61//34 62//34 82//34 83//34
f 52//34 53//34 85//34 84//34
f 60//34 61//34 83//34 84//34
f 53//34 54//34 86//34 85//34
f 59//34 60//34 84//34 85//34
f 54//34 55//34 87//34 86//34
f 58//34 59//34 85//34 86//34
f 55//34 56//34 87//34
f 57//34 58//34 86//34 87//34
f 79//34 48//34 80//34 88//34
f 65//34 66//34 89//34 88//34
f 78//34 79//34 88//34 89//34
f 66//34 67//34 90//34 89//34
f 77//34 78//34 89//34 90//34
f 67//34 68//34 91//34 90//34
f 68//34 69//34 92//34 91//34
f 76//34 77//34 90//34 91//34
f 75//34 76//34 91//34 92//34
f 69//34 70//34 93//34 92//34
f 74//34 75//34 92//34 93//34
f 70//34 71//34 94//34 93//34
f 73//34 74//34 93//34 94//34
f 71//34 72//34 94//34
